<?xml version="1.0" encoding="utf-8"?><!-- Uploaded to: SVG Repo, www.svgrepo.com, Generator: SVG Repo Mixer Tools -->
<svg width="800px" height="800px" viewBox="0 0 24 24" fill="none" xmlns="http://www.w3.org/2000/svg">
<path fill-rule="evenodd" clip-rule="evenodd" d="M3.75 3.75H19.5L20.25 4.5V20.25H4.5L3.75 19.5V3.75ZM5.25 5.25V12.9166L7.90909 10.2575L13.3636 15.7121L16.7727 12.303L18.75 14.2802V5.25H5.25ZM18.75 16.4016L16.7727 14.4243L13.3636 17.8334L7.90909 12.3788L5.25 15.0379V18.75H18.75V16.4016ZM14.7273 7.97727C14.0118 7.97727 13.4318 8.55727 13.4318 9.27273C13.4318 9.98819 14.0118 10.5682 14.7273 10.5682C15.4427 10.5682 16.0227 9.98819 16.0227 9.27273C16.0227 8.55727 15.4427 7.97727 14.7273 7.97727ZM11.9318 9.27273C11.9318 7.72884 13.1834 6.47727 14.7273 6.47727C16.2712 6.47727 17.5227 7.72884 17.5227 9.27273C17.5227 10.8166 16.2712 12.0682 14.7273 12.0682C13.1834 12.0682 11.9318 10.8166 11.9318 9.27273Z" fill="#080341"/>
</svg>